<?xml version="1.0" encoding="utf-8"?>
<!-- Generator: Adobe Illustrator 23.0.3, SVG Export Plug-In . SVG Version: 6.00 Build 0)  -->
<svg version="1.1" xmlns="http://www.w3.org/2000/svg" xmlns:xlink="http://www.w3.org/1999/xlink" x="0px" y="0px"
	 viewBox="0 0 278.17 290.77" style="enable-background:new 0 0 278.17 290.77;" xml:space="preserve">
<style type="text/css">
	.st0{fill:#231815;}
	.st1{display:none;}
	.st2{display:inline;}
</style>
<g id="圖層_1">
</g>
<g id="圖層_2">
	<g>
		<g>
			<path class="st0" d="M139.08,201.04c-55.43,0-100.52-45.09-100.52-100.52C38.57,45.09,83.66,0,139.08,0S239.6,45.09,239.6,100.52
				C239.6,155.94,194.51,201.04,139.08,201.04z M139.08,4.64c-52.87,0-95.87,43.01-95.87,95.88c0,52.87,43.01,95.88,95.87,95.88
				s95.88-43.01,95.88-95.88C234.96,47.65,191.95,4.64,139.08,4.64z"/>
			<path class="st0" d="M201.18,133.07c-0.79,0-2.72-0.17-3.95-0.35c-2.63-0.35-3.16-2.28-3.42-4.83
				c-0.44-3.68-0.44-10.62-0.44-19.04V93.41c0-13.69,0-16.14,0.17-18.95c0.17-3.07,0.88-4.56,3.25-5c1.05-0.17,1.58-0.26,2.19-0.26
				c0.35,0,0.7-0.18,0.7-0.53c0-0.53-0.44-0.7-1.41-0.7c-2.63,0-8.16,0.26-8.6,0.26c-0.44,0-5.96-0.26-9.91-0.26
				c-0.97,0-1.4,0.18-1.4,0.7c0,0.35,0.35,0.53,0.7,0.53c0.79,0,2.28,0.09,2.98,0.26c2.9,0.61,3.6,2.02,3.77,5
				C186,77.27,186,79.72,186,93.41v1.84c0,0.44-0.26,0.53-0.53,0.53h-37.2c-0.26,0-0.53-0.09-0.53-0.53v-1.84
				c0-13.69,0-16.14,0.17-18.95c0.18-3.07,0.88-4.56,3.25-5c1.05-0.17,1.58-0.26,2.19-0.26c0.35,0,0.7-0.18,0.7-0.53
				c0-0.53-0.44-0.7-1.4-0.7c-2.63,0-8.16,0.26-8.6,0.26c-0.44,0-5.96-0.26-9.91-0.26c-0.96,0-1.4,0.18-1.4,0.7
				c0,0.35,0.35,0.53,0.7,0.53c0.79,0,2.28,0.09,2.98,0.26c2.89,0.61,3.6,2.02,3.77,5c0.05,0.83,0.09,1.64,0.11,2.71l-21.57,46.07
				L91.9,68.06c-0.44-0.96-0.79-1.32-1.32-1.32c-0.53,0-0.88,0.61-0.96,1.58l-6.32,57.2c-0.35,3.33-0.61,6.75-3.51,7.28
				c-1.31,0.26-1.93,0.26-2.63,0.26c-0.44,0-0.88,0.18-0.88,0.44c0,0.61,0.61,0.79,1.49,0.79c2.37,0,6.58-0.26,7.37-0.26
				c0.7,0,4.91,0.26,8.16,0.26c1.05,0,1.58-0.18,1.58-0.79c0-0.26-0.35-0.44-0.7-0.44c-0.53,0-1.84-0.09-3.33-0.44
				c-1.32-0.26-2.28-1.4-2.28-2.72c0-1.49,0-3.07,0.09-4.47l3.51-40.71h0.35c0.97,2.37,10.79,23.42,11.58,25
				c0.44,0.88,7.98,16.06,10.26,20.35c1.67,3.16,2.11,4.03,2.72,4.03c0.79,0,1.05-0.79,2.9-4.65l20.4-43.3c0,1.99,0,4.37,0,7.24
				v15.44c0,8.42,0,15.35-0.44,19.04c-0.35,2.54-0.79,4.47-2.54,4.83c-0.79,0.18-1.84,0.35-2.63,0.35c-0.53,0-0.7,0.26-0.7,0.53
				c0,0.53,0.44,0.7,1.4,0.7c2.63,0,8.16-0.26,8.6-0.26c0.44,0,5.97,0.26,10.79,0.26c0.96,0,1.4-0.26,1.4-0.7
				c0-0.26-0.18-0.53-0.7-0.53c-0.79,0-2.72-0.17-3.95-0.35c-2.63-0.35-3.16-2.28-3.42-4.83c-0.44-3.68-0.44-10.62-0.44-19.04v-9.21
				c0-0.44,0.26-0.53,0.53-0.53h37.2c0.26,0,0.53,0.18,0.53,0.53v9.21c0,8.42,0,15.35-0.44,19.04c-0.35,2.54-0.79,4.47-2.55,4.83
				c-0.79,0.18-1.84,0.35-2.63,0.35c-0.53,0-0.7,0.26-0.7,0.53c0,0.53,0.44,0.7,1.4,0.7c2.63,0,8.16-0.26,8.6-0.26
				c0.44,0,5.97,0.26,10.79,0.26c0.96,0,1.4-0.26,1.4-0.7C201.88,133.33,201.7,133.07,201.18,133.07z"/>
		</g>
		<g>
			<path class="st0" d="M0,265.12l4.54-31.72h0.52l12.9,26.02l12.77-26.02h0.51l4.56,31.72h-3.11l-3.13-22.68l-11.21,22.68h-0.81
				L6.18,242.27l-3.12,22.86H0z"/>
			<path class="st0" d="M42.57,232c0.69,0,1.28,0.24,1.76,0.73c0.49,0.49,0.73,1.08,0.73,1.77c0,0.68-0.24,1.26-0.73,1.75
				c-0.48,0.49-1.07,0.73-1.76,0.73c-0.67,0-1.25-0.24-1.74-0.73c-0.49-0.49-0.73-1.07-0.73-1.75c0-0.69,0.24-1.28,0.73-1.77
				C41.32,232.25,41.9,232,42.57,232z M41.07,241.66h3.02v23.46h-3.02V241.66z"/>
			<path class="st0" d="M50.37,241.66h3.02v4.2c1.21-1.61,2.54-2.81,4.01-3.61c1.46-0.8,3.06-1.2,4.79-1.2
				c1.75,0,3.31,0.45,4.67,1.34c1.36,0.89,2.36,2.09,3.01,3.6c0.65,1.51,0.97,3.86,0.97,7.05v12.07h-3.02v-11.19
				c0-2.7-0.11-4.51-0.34-5.41c-0.35-1.55-1.02-2.72-2.01-3.5c-0.99-0.78-2.29-1.17-3.88-1.17c-1.83,0-3.46,0.6-4.9,1.81
				c-1.45,1.21-2.4,2.7-2.86,4.48c-0.29,1.17-0.43,3.29-0.43,6.38v8.6h-3.02V241.66z"/>
			<path class="st0" d="M97.05,257.34l2.54,1.34c-0.83,1.64-1.8,2.96-2.89,3.97c-1.1,1-2.33,1.77-3.69,2.3
				c-1.37,0.52-2.92,0.79-4.64,0.79c-3.83,0-6.82-1.25-8.98-3.76c-2.16-2.51-3.24-5.34-3.24-8.51c0-2.98,0.91-5.63,2.74-7.96
				c2.31-2.96,5.42-4.44,9.3-4.44c4,0,7.19,1.52,9.58,4.55c1.7,2.14,2.56,4.82,2.59,8.02H79.26c0.06,2.72,0.93,4.96,2.61,6.7
				c1.68,1.74,3.76,2.61,6.24,2.61c1.19,0,2.36-0.21,3.49-0.62c1.13-0.42,2.09-0.97,2.88-1.65
				C95.27,259.98,96.13,258.87,97.05,257.34z M97.05,251.02c-0.4-1.61-0.99-2.9-1.76-3.86c-0.77-0.96-1.79-1.74-3.05-2.33
				c-1.27-0.59-2.6-0.88-3.99-0.88c-2.3,0-4.28,0.74-5.94,2.22c-1.21,1.08-2.12,2.69-2.74,4.85H97.05z"/>
			<path class="st0" d="M103.78,241.66h3.21l7.87,17.1l7.78-17.1h3.23l-10.74,23.46h-0.56L103.78,241.66z"/>
			<path class="st0" d="M153.84,241.66v23.46h-2.97v-4.03c-1.27,1.54-2.68,2.7-4.26,3.47c-1.57,0.78-3.29,1.17-5.16,1.17
				c-3.32,0-6.15-1.2-8.51-3.61c-2.35-2.41-3.52-5.34-3.52-8.79c0-3.38,1.19-6.27,3.56-8.67c2.37-2.4,5.22-3.6,8.56-3.6
				c1.93,0,3.67,0.41,5.23,1.23c1.56,0.82,2.93,2.05,4.11,3.69v-4.31H153.84z M141.78,243.97c-1.68,0-3.23,0.41-4.65,1.24
				c-1.42,0.83-2.55,1.99-3.39,3.48c-0.84,1.49-1.26,3.07-1.26,4.74c0,1.65,0.42,3.23,1.27,4.74c0.85,1.51,1.98,2.68,3.41,3.52
				c1.43,0.84,2.96,1.26,4.6,1.26c1.65,0,3.22-0.42,4.69-1.25c1.48-0.83,2.62-1.96,3.42-3.38c0.79-1.42,1.2-3.02,1.2-4.8
				c0-2.71-0.89-4.98-2.68-6.81C146.59,244.88,144.39,243.97,141.78,243.97z"/>
			<path class="st0" d="M173.31,233.41h3.17v13.3h16.15v-13.3h3.17v31.72h-3.17v-15.31h-16.15v15.31h-3.17V233.41z"/>
			<path class="st0" d="M214.82,244.23l-1.94,2c-1.62-1.57-3.2-2.35-4.74-2.35c-0.98,0-1.82,0.32-2.52,0.97
				c-0.7,0.65-1.05,1.4-1.05,2.26c0,0.76,0.29,1.49,0.86,2.18c0.58,0.71,1.79,1.53,3.63,2.48c2.25,1.16,3.77,2.29,4.58,3.36
				c0.79,1.09,1.19,2.32,1.19,3.69c0,1.93-0.68,3.56-2.03,4.89c-1.35,1.34-3.04,2.01-5.07,2.01c-1.36,0-2.65-0.29-3.88-0.88
				c-1.23-0.59-2.25-1.4-3.06-2.44l1.9-2.16c1.54,1.74,3.18,2.61,4.91,2.61c1.21,0,2.24-0.39,3.09-1.16
				c0.85-0.78,1.27-1.69,1.27-2.74c0-0.86-0.28-1.63-0.84-2.31c-0.56-0.66-1.83-1.5-3.8-2.5c-2.12-1.09-3.56-2.17-4.32-3.23
				c-0.76-1.06-1.14-2.28-1.14-3.64c0-1.78,0.61-3.26,1.83-4.44c1.21-1.18,2.75-1.77,4.61-1.77
				C210.45,241.06,212.63,242.12,214.82,244.23z"/>
			<path class="st0" d="M221.21,232c0.69,0,1.28,0.24,1.76,0.73c0.49,0.49,0.73,1.08,0.73,1.77c0,0.68-0.24,1.26-0.73,1.75
				c-0.48,0.49-1.07,0.73-1.76,0.73c-0.67,0-1.25-0.24-1.74-0.73c-0.49-0.49-0.73-1.07-0.73-1.75c0-0.69,0.24-1.28,0.73-1.77
				C219.96,232.25,220.54,232,221.21,232z M219.71,241.66h3.02v23.46h-3.02V241.66z"/>
			<path class="st0" d="M248.76,257.34l2.54,1.34c-0.84,1.64-1.8,2.96-2.89,3.97c-1.09,1-2.32,1.77-3.69,2.3
				c-1.37,0.52-2.91,0.79-4.64,0.79c-3.83,0-6.82-1.25-8.98-3.76c-2.16-2.51-3.24-5.34-3.24-8.51c0-2.98,0.91-5.63,2.74-7.96
				c2.32-2.96,5.42-4.44,9.3-4.44c4,0,7.2,1.52,9.58,4.55c1.7,2.14,2.56,4.82,2.59,8.02h-21.11c0.06,2.72,0.93,4.96,2.61,6.7
				c1.69,1.74,3.76,2.61,6.24,2.61c1.2,0,2.36-0.21,3.49-0.62c1.13-0.42,2.09-0.97,2.88-1.65
				C246.98,259.98,247.83,258.87,248.76,257.34z M248.76,251.02c-0.4-1.61-0.99-2.9-1.76-3.86c-0.77-0.96-1.79-1.74-3.06-2.33
				c-1.27-0.59-2.6-0.88-3.99-0.88c-2.3,0-4.28,0.74-5.94,2.22c-1.21,1.08-2.13,2.69-2.74,4.85H248.76z"/>
			<path class="st0" d="M257.7,232.61h3.02v13.26c1.22-1.61,2.56-2.81,4.03-3.61c1.47-0.8,3.06-1.2,4.76-1.2
				c1.75,0,3.31,0.45,4.67,1.34c1.36,0.89,2.36,2.09,3.01,3.59c0.65,1.5,0.97,3.86,0.97,7.06v12.07h-3.02v-11.19
				c0-2.7-0.11-4.51-0.32-5.41c-0.37-1.55-1.05-2.72-2.04-3.5c-0.98-0.78-2.27-1.17-3.87-1.17c-1.83,0-3.46,0.6-4.91,1.81
				c-1.44,1.21-2.4,2.7-2.86,4.48c-0.29,1.15-0.43,3.28-0.43,6.38v8.6h-3.02V232.61z"/>
		</g>
		<g>
			<path class="st0" d="M109.53,290.6h-1.24v-7.13c0-0.56,0.03-1.25,0.1-2.07h-0.03c-0.12,0.48-0.23,0.82-0.32,1.03l-3.63,8.17
				h-0.61l-3.63-8.11c-0.1-0.24-0.21-0.6-0.32-1.09h-0.03c0.04,0.42,0.06,1.12,0.06,2.08v7.11h-1.2v-10.63h1.65l3.26,7.41
				c0.25,0.57,0.42,0.99,0.49,1.28h0.04c0.21-0.58,0.38-1.02,0.51-1.3l3.33-7.38h1.56V290.6z"/>
			<path class="st0" d="M123.59,290.6h-1.38l-1.13-2.98h-4.51l-1.06,2.98h-1.38l4.08-10.63h1.29L123.59,290.6z M120.68,286.5
				l-1.67-4.53c-0.05-0.15-0.11-0.39-0.16-0.71h-0.03c-0.05,0.3-0.1,0.54-0.17,0.71L117,286.5H120.68z"/>
			<path class="st0" d="M135.59,290.6h-1.73l-4.11-4.86c-0.15-0.18-0.25-0.31-0.28-0.37h-0.03v5.23h-1.24v-10.63h1.24v5h0.03
				c0.07-0.11,0.16-0.23,0.28-0.36l3.97-4.63h1.55l-4.56,5.1L135.59,290.6z"/>
			<path class="st0" d="M145.67,290.6h-5.63v-10.63h5.4v1.13h-4.15v3.54h3.84v1.12h-3.84v3.72h4.39V290.6z"/>
			<path class="st0" d="M165.72,286.3c0,2.99-1.35,4.48-4.04,4.48c-2.58,0-3.87-1.44-3.87-4.31v-6.5h1.25v6.42
				c0,2.18,0.92,3.27,2.76,3.27c1.77,0,2.66-1.05,2.66-3.16v-6.53h1.25V286.3z"/>
			<path class="st0" d="M172.65,286.58v4.02h-1.25v-10.63h2.92c1.14,0,2.02,0.28,2.64,0.83c0.62,0.55,0.94,1.33,0.94,2.34
				c0,1.01-0.35,1.83-1.04,2.48c-0.7,0.64-1.63,0.96-2.81,0.96H172.65z M172.65,281.09v4.36h1.3c0.86,0,1.52-0.2,1.97-0.59
				c0.45-0.39,0.68-0.95,0.68-1.66c0-1.4-0.83-2.1-2.49-2.1H172.65z"/>
		</g>
	</g>
	<g class="st1">
		<g class="st2">
			<path class="st0" d="M-57.81,656.22c-35.04,0-63.54-28.5-63.54-63.54c0-35.04,28.5-63.54,63.54-63.54
				c35.04,0,63.54,28.5,63.54,63.54C5.73,627.72-22.77,656.22-57.81,656.22z M-57.81,532.08c-33.42,0-60.61,27.19-60.61,60.61
				c0,33.42,27.19,60.61,60.61,60.61c33.42,0,60.61-27.19,60.61-60.61C2.8,559.26-24.39,532.08-57.81,532.08z"/>
			<path class="st0" d="M-18.56,613.26c-0.5,0-1.72-0.11-2.5-0.22c-1.66-0.22-2-1.44-2.16-3.05c-0.28-2.33-0.28-6.71-0.28-12.04
				v-9.76c0-8.65,0-10.21,0.11-11.98c0.11-1.94,0.55-2.88,2.05-3.16c0.66-0.11,1-0.17,1.39-0.17c0.22,0,0.44-0.11,0.44-0.33
				c0-0.33-0.28-0.44-0.89-0.44c-1.66,0-5.16,0.17-5.43,0.17c-0.28,0-3.77-0.17-6.27-0.17c-0.61,0-0.89,0.11-0.89,0.45
				c0,0.22,0.22,0.33,0.44,0.33c0.5,0,1.44,0.06,1.88,0.17c1.83,0.39,2.28,1.28,2.39,3.16c0.11,1.77,0.11,3.33,0.11,11.98v1.16
				c0,0.28-0.17,0.33-0.33,0.33H-52c-0.17,0-0.33-0.06-0.33-0.33v-1.16c0-8.65,0-10.21,0.11-11.98c0.11-1.94,0.56-2.88,2.05-3.16
				c0.67-0.11,1-0.17,1.39-0.17c0.22,0,0.44-0.11,0.44-0.33c0-0.33-0.28-0.44-0.89-0.44c-1.66,0-5.16,0.17-5.44,0.17
				c-0.28,0-3.77-0.17-6.27-0.17c-0.61,0-0.89,0.11-0.89,0.45c0,0.22,0.22,0.33,0.44,0.33c0.5,0,1.44,0.06,1.88,0.17
				c1.83,0.39,2.28,1.28,2.39,3.16c0.03,0.53,0.06,1.04,0.07,1.71l-13.63,29.12l-16.97-34.88c-0.28-0.61-0.5-0.83-0.83-0.83
				s-0.55,0.39-0.61,1l-3.99,36.16c-0.22,2.11-0.39,4.27-2.22,4.6c-0.83,0.17-1.22,0.17-1.66,0.17c-0.28,0-0.55,0.11-0.55,0.28
				c0,0.39,0.39,0.5,0.94,0.5c1.5,0,4.16-0.17,4.66-0.17c0.44,0,3.11,0.17,5.16,0.17c0.67,0,1-0.11,1-0.5
				c0-0.17-0.22-0.28-0.44-0.28c-0.33,0-1.16-0.06-2.11-0.28c-0.83-0.17-1.44-0.89-1.44-1.72c0-0.94,0-1.94,0.06-2.83l2.22-25.73
				h0.22c0.61,1.5,6.82,14.81,7.32,15.81c0.28,0.56,5.05,10.15,6.49,12.87c1.05,2,1.33,2.55,1.72,2.55c0.5,0,0.67-0.5,1.83-2.94
				l12.89-27.37c0,1.26,0,2.76,0,4.58v9.76c0,5.32,0,9.71-0.28,12.04c-0.22,1.61-0.5,2.83-1.61,3.05c-0.5,0.11-1.17,0.22-1.66,0.22
				c-0.33,0-0.44,0.17-0.44,0.33c0,0.33,0.28,0.44,0.89,0.44c1.66,0,5.16-0.17,5.43-0.17c0.28,0,3.77,0.17,6.82,0.17
				c0.61,0,0.89-0.17,0.89-0.44c0-0.17-0.11-0.33-0.44-0.33c-0.5,0-1.72-0.11-2.5-0.22c-1.66-0.22-2-1.44-2.16-3.05
				c-0.28-2.33-0.28-6.71-0.28-12.04v-5.82c0-0.28,0.17-0.33,0.33-0.33h23.51c0.17,0,0.33,0.11,0.33,0.33v5.82
				c0,5.32,0,9.71-0.28,12.04c-0.22,1.61-0.5,2.83-1.61,3.05c-0.5,0.11-1.16,0.22-1.66,0.22c-0.33,0-0.44,0.17-0.44,0.33
				c0,0.33,0.28,0.44,0.89,0.44c1.66,0,5.16-0.17,5.43-0.17c0.28,0,3.77,0.17,6.82,0.17c0.61,0,0.89-0.17,0.89-0.44
				C-18.11,613.42-18.22,613.26-18.56,613.26z"/>
		</g>
		<g class="st2">
			<path class="st0" d="M29.54,598.23l6.03-42.15h0.69l17.14,34.58l16.97-34.58h0.67l6.07,42.15h-4.13l-4.16-30.14L53.9,598.23
				h-1.08l-15.08-30.37l-4.14,30.37H29.54z"/>
			<path class="st0" d="M86.11,554.21c0.91,0,1.69,0.32,2.34,0.98c0.65,0.65,0.97,1.43,0.97,2.35c0,0.9-0.32,1.67-0.97,2.32
				c-0.64,0.65-1.42,0.97-2.34,0.97c-0.89,0-1.66-0.33-2.31-0.97c-0.65-0.65-0.97-1.42-0.97-2.32c0-0.92,0.32-1.7,0.97-2.35
				C84.45,554.54,85.22,554.21,86.11,554.21z M84.12,567.05h4.01v31.17h-4.01V567.05z"/>
			<path class="st0" d="M96.47,567.05h4.01v5.59c1.6-2.14,3.38-3.74,5.33-4.8c1.95-1.06,4.07-1.59,6.36-1.59
				c2.33,0,4.4,0.59,6.21,1.78c1.8,1.19,3.14,2.78,4,4.79c0.86,2.01,1.29,5.13,1.29,9.37v16.04h-4.01v-14.87
				c0-3.59-0.15-5.99-0.45-7.19c-0.47-2.06-1.36-3.61-2.68-4.66c-1.32-1.04-3.04-1.56-5.16-1.56c-2.43,0-4.6,0.8-6.52,2.41
				c-1.92,1.6-3.19,3.59-3.8,5.96c-0.38,1.55-0.57,4.37-0.57,8.48v11.43h-4.01V567.05z"/>
			<path class="st0" d="M158.5,587.88l3.38,1.78c-1.11,2.18-2.39,3.94-3.84,5.27c-1.46,1.33-3.09,2.35-4.91,3.05
				c-1.82,0.7-3.87,1.05-6.17,1.05c-5.09,0-9.07-1.67-11.93-5c-2.87-3.34-4.3-7.1-4.3-11.3c0-3.96,1.21-7.48,3.64-10.57
				c3.08-3.94,7.2-5.9,12.36-5.9c5.31,0,9.56,2.02,12.73,6.05c2.25,2.85,3.4,6.4,3.44,10.66h-28.05c0.08,3.62,1.23,6.59,3.47,8.9
				c2.24,2.32,5,3.47,8.29,3.47c1.58,0,3.13-0.27,4.63-0.83c1.5-0.55,2.78-1.29,3.83-2.2C156.14,591.39,157.28,589.92,158.5,587.88z
				 M158.5,579.49c-0.53-2.14-1.31-3.85-2.34-5.13c-1.02-1.28-2.38-2.31-4.06-3.09c-1.68-0.78-3.45-1.17-5.31-1.17
				c-3.06,0-5.69,0.98-7.89,2.95c-1.61,1.43-2.82,3.58-3.64,6.45H158.5z"/>
			<path class="st0" d="M167.45,567.05h4.27l10.46,22.72l10.34-22.72h4.3l-14.27,31.17h-0.75L167.45,567.05z"/>
			<path class="st0" d="M233.98,567.05v31.17h-3.95v-5.36c-1.68,2.04-3.57,3.58-5.66,4.61c-2.09,1.03-4.37,1.55-6.86,1.55
				c-4.41,0-8.18-1.6-11.3-4.8c-3.12-3.2-4.68-7.09-4.68-11.68c0-4.49,1.58-8.33,4.73-11.52c3.15-3.19,6.94-4.79,11.37-4.79
				c2.56,0,4.88,0.54,6.95,1.63c2.07,1.09,3.89,2.72,5.46,4.9v-5.73H233.98z M217.95,570.12c-2.24,0-4.3,0.55-6.18,1.65
				c-1.89,1.1-3.39,2.64-4.51,4.62c-1.12,1.98-1.67,4.08-1.67,6.29c0,2.2,0.56,4.29,1.69,6.3c1.13,2,2.64,3.56,4.54,4.68
				c1.9,1.12,3.93,1.67,6.11,1.67c2.19,0,4.27-0.55,6.24-1.66c1.97-1.11,3.48-2.61,4.54-4.49c1.06-1.89,1.59-4.02,1.59-6.38
				c0-3.61-1.19-6.62-3.56-9.04C224.34,571.33,221.42,570.12,217.95,570.12z"/>
			<path class="st0" d="M259.85,556.08h4.21v17.68h21.46v-17.68h4.21v42.15h-4.21v-20.34h-21.46v20.34h-4.21V556.08z"/>
			<path class="st0" d="M315.01,570.46l-2.58,2.66c-2.15-2.08-4.25-3.12-6.3-3.12c-1.3,0-2.42,0.43-3.34,1.29
				c-0.93,0.86-1.39,1.86-1.39,3.01c0,1.01,0.38,1.98,1.15,2.89c0.77,0.94,2.37,2.04,4.83,3.3c2.99,1.55,5.01,3.04,6.09,4.47
				c1.05,1.45,1.58,3.08,1.58,4.9c0,2.56-0.9,4.73-2.7,6.5c-1.8,1.78-4.04,2.67-6.74,2.67c-1.8,0-3.52-0.39-5.15-1.18
				c-1.64-0.78-2.99-1.86-4.06-3.24l2.52-2.87c2.05,2.31,4.22,3.47,6.52,3.47c1.61,0,2.98-0.52,4.11-1.55
				c1.13-1.03,1.69-2.24,1.69-3.64c0-1.15-0.37-2.17-1.12-3.07c-0.75-0.88-2.43-1.99-5.05-3.32c-2.81-1.45-4.73-2.89-5.75-4.3
				c-1.01-1.41-1.52-3.03-1.52-4.84c0-2.37,0.81-4.34,2.43-5.9c1.61-1.56,3.66-2.35,6.12-2.35
				C309.21,566.25,312.1,567.65,315.01,570.46z"/>
			<path class="st0" d="M323.51,554.21c0.91,0,1.69,0.32,2.34,0.98c0.65,0.65,0.97,1.43,0.97,2.35c0,0.9-0.32,1.67-0.97,2.32
				c-0.64,0.65-1.42,0.97-2.34,0.97c-0.89,0-1.66-0.33-2.31-0.97c-0.65-0.65-0.97-1.42-0.97-2.32c0-0.92,0.32-1.7,0.97-2.35
				C321.84,554.54,322.61,554.21,323.51,554.21z M321.51,567.05h4.01v31.17h-4.01V567.05z"/>
			<path class="st0" d="M360.11,587.88l3.38,1.78c-1.11,2.18-2.39,3.94-3.84,5.27c-1.46,1.33-3.09,2.35-4.91,3.05
				c-1.82,0.7-3.87,1.05-6.17,1.05c-5.08,0-9.06-1.67-11.93-5c-2.87-3.34-4.3-7.1-4.3-11.3c0-3.96,1.21-7.48,3.64-10.57
				c3.08-3.94,7.2-5.9,12.36-5.9c5.32,0,9.56,2.02,12.73,6.05c2.26,2.85,3.4,6.4,3.44,10.66h-28.05c0.08,3.62,1.24,6.59,3.47,8.9
				c2.24,2.32,5,3.47,8.29,3.47c1.59,0,3.13-0.27,4.63-0.83c1.51-0.55,2.78-1.29,3.83-2.2
				C357.75,591.39,358.89,589.92,360.11,587.88z M360.11,579.49c-0.53-2.14-1.32-3.85-2.34-5.13c-1.02-1.28-2.38-2.31-4.06-3.09
				c-1.68-0.78-3.45-1.17-5.31-1.17c-3.06,0-5.69,0.98-7.89,2.95c-1.61,1.43-2.82,3.58-3.65,6.45H360.11z"/>
			<path class="st0" d="M372,555.02h4.01v17.62c1.62-2.14,3.41-3.74,5.36-4.8c1.95-1.06,4.06-1.59,6.33-1.59
				c2.33,0,4.4,0.59,6.21,1.78c1.8,1.19,3.14,2.77,3.99,4.77c0.86,2,1.29,5.13,1.29,9.38v16.04h-4.01v-14.87
				c0-3.59-0.15-5.99-0.43-7.19c-0.5-2.06-1.4-3.61-2.71-4.66c-1.31-1.04-3.02-1.56-5.14-1.56c-2.43,0-4.6,0.8-6.52,2.41
				c-1.92,1.6-3.18,3.59-3.79,5.96c-0.38,1.53-0.57,4.35-0.57,8.48v11.43H372V555.02z"/>
		</g>
		<g class="st2">
			<path class="st0" d="M44.6,632.08h-1.65v-9.48c0-0.75,0.05-1.66,0.14-2.75h-0.04c-0.16,0.64-0.3,1.09-0.42,1.37l-4.83,10.85H37
				l-4.82-10.78c-0.14-0.31-0.28-0.8-0.42-1.45h-0.04c0.05,0.56,0.08,1.49,0.08,2.77v9.45h-1.6v-14.12h2.19l4.33,9.85
				c0.33,0.75,0.55,1.32,0.65,1.69h0.06c0.28-0.78,0.51-1.35,0.68-1.73l4.42-9.81h2.07V632.08z"/>
			<path class="st0" d="M115.24,632.08h-1.83l-1.5-3.96h-5.99l-1.41,3.96h-1.84l5.41-14.12h1.72L115.24,632.08z M111.37,626.63
				l-2.22-6.02c-0.07-0.2-0.14-0.51-0.22-0.95h-0.04c-0.06,0.4-0.14,0.72-0.23,0.95l-2.2,6.02H111.37z"/>
			<path class="st0" d="M185.44,632.08h-2.3l-5.46-6.46c-0.2-0.24-0.33-0.41-0.38-0.49h-0.04v6.95h-1.66v-14.12h1.66v6.64h0.04
				c0.09-0.14,0.22-0.31,0.38-0.48l5.28-6.16h2.06l-6.06,6.78L185.44,632.08z"/>
			<path class="st0" d="M255.82,632.08h-7.49v-14.12h7.17v1.5h-5.51v4.7h5.1v1.49h-5.1v4.94h5.83V632.08z"/>
			<path class="st0" d="M328.89,626.37c0,3.97-1.79,5.95-5.37,5.95c-3.43,0-5.14-1.91-5.14-5.72v-8.64h1.66v8.53
				c0,2.9,1.22,4.34,3.66,4.34c2.36,0,3.54-1.4,3.54-4.2v-8.68h1.66V626.37z"/>
			<path class="st0" d="M392.53,626.74v5.34h-1.66v-14.12h3.88c1.51,0,2.68,0.37,3.51,1.1c0.83,0.74,1.24,1.77,1.24,3.11
				c0,1.34-0.46,2.44-1.38,3.29c-0.92,0.85-2.17,1.28-3.74,1.28H392.53z M392.53,619.45v5.79h1.73c1.14,0,2.01-0.26,2.61-0.78
				c0.6-0.52,0.9-1.26,0.9-2.21c0-1.87-1.11-2.8-3.31-2.8H392.53z"/>
		</g>
	</g>
</g>
</svg>
