<?xml version="1.0" encoding="utf-8"?>
<!-- Generator: Adobe Illustrator 16.0.3, SVG Export Plug-In . SVG Version: 6.00 Build 0)  -->
<!DOCTYPE svg PUBLIC "-//W3C//DTD SVG 1.1//EN" "http://www.w3.org/Graphics/SVG/1.1/DTD/svg11.dtd">
<svg version="1.1" id="圖層_1" xmlns="http://www.w3.org/2000/svg" xmlns:xlink="http://www.w3.org/1999/xlink" x="0px" y="0px"
	 width="520px" height="200px" viewBox="0 0 520 200" enable-background="new 0 0 520 200" xml:space="preserve">
<text transform="matrix(1 0 0 1 -73.3579 41.7412)" display="none" font-family="'Tangerine-Bold'" font-size="193.3278">Mineva</text>
<g>
	<path d="M486.877,136.566c0.256-0.258,0.58-0.258,0.967,0c0.387,0.26,0.514,0.646,0.387,1.16c-2.32,3.352-4.9,6.025-7.734,8.023
		c-2.836,1.998-5.543,2.996-8.119,2.996c-2.967,0-4.866-2.094-5.703-6.283c-0.84-4.188-0.42-9.184,1.257-14.982
		c-3.479,5.543-7.25,10.279-11.31,14.209c-4.061,3.934-8.347,6.283-12.856,7.057c-3.093,0-5.479-1.418-7.153-4.254
		c-1.676-2.834-2.514-6.119-2.514-9.859c0-4.254,1.031-8.473,3.094-12.664c2.061-4.186,4.8-7.955,8.217-11.309
		c3.413-3.35,7.217-6.09,11.406-8.217c4.187-2.126,8.41-3.19,12.662-3.19c4.511,0,8.054,1.097,10.634,3.288
		c1.286-0.9,2.931-1.674,4.93-2.321c1.997-0.644,3.771-0.967,5.316-0.967c0.514,0,0.773,0.323,0.773,0.967
		c-2.966,3.61-5.51,7.573-7.637,11.889c-2.126,4.32-3.77,8.443-4.93,12.373c-1.159,3.934-1.87,7.443-2.126,10.537
		c-0.26,3.094,0,5.219,0.773,6.379c0.643,0.773,1.739,1,3.285,0.678C482.043,141.756,484.17,139.92,486.877,136.566z
		 M449.758,141.592c1.547,0,3.447-0.967,5.703-2.898c2.254-1.934,4.606-4.512,7.057-7.734c2.447-3.219,4.863-6.83,7.25-10.826
		c2.383-3.992,4.477-8.053,6.283-12.18c-0.518-1.674-1.711-3.027-3.577-4.061c-1.87-1.029-4.03-1.545-6.477-1.545
		c-2.966,0-5.736,0.742-8.313,2.223c-2.579,1.482-4.803,3.547-6.67,6.186c-1.869,2.645-3.353,5.801-4.445,9.475
		c-1.098,3.672-1.645,7.703-1.645,12.082c0,2.836,0.484,5.094,1.451,6.768C447.342,140.756,448.468,141.592,449.758,141.592z"/>
</g>
<g>
	<path d="M397.111,150.039c-1.807,0.646-3.9,1.256-6.283,1.836c-2.387,0.58-4.736,0.871-7.057,0.871c-1.547,0-2-0.838-1.354-2.514
		c2.189-5.414,4.061-11.311,5.606-17.689c1.547-6.381,2.64-12.084,3.286-17.109c0.387-4.51-0.322-6.768-2.126-6.768
		c-1.933,0-4.319,1.484-7.153,4.447c-0.646,0.26-1.16,0.193-1.547-0.193s-0.453-0.836-0.193-1.354c2.32-2.32,4.93-4.283,7.83-5.896
		c2.9-1.609,5.83-2.416,8.797-2.416c1.934,0,3.22,0.58,3.866,1.74c0.644,1.16,0.967,2.643,0.967,4.445
		c0,2.451-0.26,5.35-0.773,8.701c-0.517,3.352-1.193,6.863-2.03,10.535c-0.84,3.674-1.74,7.283-2.706,10.826
		c-0.967,3.547-1.903,6.736-2.804,9.57c3.607-0.9,7.184-2.576,10.73-5.027c3.543-2.445,6.732-5.283,9.569-8.506
		c2.833-3.221,5.123-6.732,6.862-10.535c1.74-3.801,2.611-7.637,2.611-11.504c0-3.35-1.033-5.027-3.094-5.027
		c-1.16,0-2.097,0.227-2.803,0.678c-0.711,0.453-1.451,1.256-2.225,2.416c-0.387,0.26-0.709,0.193-0.966-0.193
		c-0.26-0.387-0.323-0.773-0.193-1.16c0.899-1.416,2.479-2.93,4.736-4.543c2.253-1.609,4.606-2.416,7.057-2.416
		c2.06,0,3.64,0.742,4.736,2.223c1.094,1.484,1.644,3.32,1.644,5.51c0,3.74-0.967,7.51-2.9,11.311
		c-1.934,3.803-4.513,7.443-7.732,10.922c-3.224,3.48-6.961,6.67-11.213,9.57C406.004,145.689,401.621,148.105,397.111,150.039z"/>
</g>
<g>
	<path d="M374.924,114.92c0,7.346-9.732,12.373-29.193,15.08c-0.129,1.289-0.227,2.58-0.289,3.865
		c-0.066,1.291-0.097,2.645-0.097,4.061c0,3.354,0.772,5.93,2.319,7.734s3.994,2.705,7.347,2.705c2.446,0,4.96-0.707,7.54-2.127
		c2.576-1.416,4.64-3.219,6.187-5.412c0.513-0.258,0.899-0.16,1.159,0.289c0.258,0.453,0.32,0.938,0.193,1.451
		c-2.579,3.354-5.832,6.219-9.762,8.604c-3.934,2.385-8.154,3.576-12.664,3.576c-4.513,0-7.766-1.127-9.763-3.383
		c-1.999-2.254-2.997-5.443-2.997-9.57c0-3.994,0.838-8.15,2.514-12.471c1.674-4.316,3.834-8.279,6.477-11.889
		c2.641-3.607,5.67-6.541,9.086-8.797c3.414-2.254,6.863-3.383,10.344-3.383c3.479,0,6.283,1,8.41,2.996
		C373.86,110.25,374.924,112.473,374.924,114.92z M358.104,110.279c-2.966,0-5.51,1.387-7.636,4.158s-3.577,7.057-4.351,12.855
		c6.188-0.643,10.761-1.836,13.727-3.576c2.964-1.74,4.447-3.896,4.447-6.477c0-1.934-0.58-3.576-1.74-4.93
		S359.908,110.279,358.104,110.279z"/>
</g>
<g>
	<path d="M328.811,144.213c0.256-0.258,0.58-0.225,0.966,0.096c0.387,0.324,0.514,0.744,0.387,1.258
		c-2.319,3.223-4.996,6.059-8.022,8.506c-3.03,2.449-6.027,3.674-8.99,3.674c-2.193,0-3.9-0.707-5.123-2.127
		c-1.227-1.416-1.837-3.287-1.837-5.607c0-4.51,0.804-9.406,2.417-14.691c1.609-5.283,3.77-10.633,6.477-16.047
		c0.387-0.9,0.58-1.867,0.58-2.9c0-1.287-0.58-1.934-1.74-1.934c-4.77,0-10.053,3.258-15.854,9.764
		c-5.799,6.51-11.148,16.854-16.046,31.029c-0.13,0.387-0.55,0.742-1.257,1.063c-0.709,0.324-1.516,0.58-2.416,0.773
		c-0.903,0.193-1.807,0.357-2.707,0.484c-0.902,0.129-1.613,0.193-2.127,0.193c-0.646,0-1.129-0.127-1.449-0.387
		c-0.323-0.258-0.356-0.707-0.097-1.354c2.19-5.541,4.413-11.631,6.669-18.27c2.254-6.637,4.221-13.307,5.897-20.01
		c0.386-1.287,0.45-2.223,0.192-2.803c-0.26-0.58-0.709-0.871-1.353-0.871c-1.42,0-2.772,0.613-4.06,1.838
		c-1.29,1.227-2.45,2.547-3.48,3.963c-0.387,0.26-0.742,0.193-1.063-0.193c-0.324-0.387-0.42-0.773-0.291-1.16
		c0.645-0.9,1.514-1.934,2.61-3.094c1.094-1.16,2.351-2.287,3.771-3.383c1.416-1.094,2.899-1.996,4.445-2.707
		c1.547-0.707,3.094-1.063,4.641-1.063c2.189,0,3.64,0.676,4.35,2.029c0.707,1.354,0.87,2.996,0.483,4.93
		c-0.646,2.838-1.323,5.51-2.03,8.023c-0.709,2.514-1.58,5.316-2.609,8.41c1.547-2.834,3.446-5.637,5.703-8.41
		c2.254-2.77,4.767-5.283,7.539-7.539c2.771-2.254,5.768-4.061,8.99-5.414c3.221-1.354,6.637-2.029,10.246-2.029
		c1.547,0,2.737,0.387,3.577,1.16c0.837,0.773,1.257,1.676,1.257,2.707c0,1.805-0.453,3.416-1.354,4.832
		c-2.707,4.9-4.996,9.957-6.863,15.176c-1.87,5.221-2.803,9.895-2.803,14.018c0,3.352,1.093,5.025,3.286,5.025
		c1.417,0,2.833-0.58,4.253-1.74C325.394,148.273,327.004,146.533,328.811,144.213z"/>
</g>
<g>
	<path d="M246.158,122.787c-0.387,0.26-0.71,0.162-0.967-0.291c-0.26-0.449-0.323-0.869-0.193-1.256
		c4.767-3.867,11.406-7.859,19.912-11.986c1.031,0,1.547,0.58,1.547,1.74c-1.676,2.967-3.319,6.186-4.93,9.666
		c-1.613,3.48-3.03,6.93-4.253,10.344c-1.227,3.416-2.223,6.703-2.997,9.859c-0.773,3.16-1.16,5.77-1.16,7.83
		c0,2.578,0.9,3.865,2.707,3.865c1.417,0,2.803-0.609,4.157-1.836c1.353-1.223,2.93-2.803,4.736-4.736
		c0.258-0.258,0.58-0.225,0.967,0.096c0.387,0.324,0.451,0.807,0.193,1.451c-2.836,3.352-5.639,6.059-8.409,8.119
		c-2.773,2.063-5.446,3.094-8.023,3.094c-4.513,0-6.767-2.127-6.767-6.381c0-2.32,0.354-5.057,1.063-8.217
		c0.707-3.156,1.674-6.379,2.9-9.666c1.224-3.285,2.577-6.506,4.06-9.666c1.48-3.156,2.997-5.896,4.543-8.217
		c-1.42,0.773-2.997,1.74-4.737,2.9C248.768,120.66,247.318,121.756,246.158,122.787z M266.844,100.941
		c-0.387,0.387-0.807,0.387-1.256,0c-0.453-0.387-0.807-0.934-1.064-1.644c-0.26-0.707-0.386-1.48-0.386-2.32
		c0-0.837,0.193-1.576,0.579-2.223c1.418-1.804,3.511-4.091,6.283-6.863c2.771-2.771,5.637-5.123,8.604-7.057
		c0.257-0.127,0.58-0.03,0.967,0.29c0.387,0.323,0.514,0.613,0.387,0.87c-2.707,2.449-5.286,5.383-7.732,8.796
		C270.773,94.208,268.647,97.59,266.844,100.941z"/>
</g>
<g>
	<path d="M241.515,7.182c0.635-0.104,1.143,0.21,1.526,0.936c0.38,0.73,0.428,1.407,0.139,2.03c-5.33,8.08-9.796,16.84-13.396,26.29
		c-3.604,9.449-7.368,32.263-9.299,41.94c-1.931,9.679-2.02,19.109-2.269,28.293c-0.249,9.187,0.238,17.492,1.464,24.921
		c1.248,7.568,3.052,13.354,5.411,17.356c2.355,4.006,4.997,5.763,7.924,5.279c2.543-0.419,4.816-1.873,6.824-4.364
		c2.005-2.49,3.841-5.817,5.506-9.979c0.335-0.341,0.746-0.408,1.24-0.204c0.49,0.21,0.729,0.673,0.719,1.394
		c-1.008,2.615-2.209,5.223-3.607,7.83c-1.4,2.605-2.99,5.028-4.777,7.268c-1.786,2.238-3.662,4.133-5.627,5.678
		c-1.967,1.55-3.967,2.49-6,2.826c-4.706,0.775-8.596-1.029-11.67-5.418c-3.075-4.387-5.271-10.578-6.59-18.566
		c-1.086-6.586-1.597-14.025-1.525-22.317c0.069-8.289,0.354-18.131,1.703-26.994c1.346-8.86,3.715-29.625,6.267-38.328
		c2.548-8.697,5.771-16.68,9.668-23.948c-6.59,7.566-13.228,16.437-19.908,26.608c-6.683,10.174-12.981,20.897-18.894,32.165
		c-5.914,11.27-11.267,22.775-16.059,34.508c-4.794,11.732-8.52,23.001-11.177,33.806c-0.164,0.604-0.561,1.354-1.196,2.249
		c-0.636,0.898-1.412,1.744-2.324,2.543c-0.915,0.799-1.845,1.492-2.791,2.08c-0.95,0.59-1.804,0.945-2.566,1.072
		c-1.02,0.168-1.482-0.259-1.388-1.283c-1.169-22.123-0.894-42.037,0.825-59.746c1.715-17.703,4.448-34.21,8.194-49.514
		c-7.401,18.498-15.159,35.178-21.234,50.581c-7.92,20.08-16.68,39.718-25.042,50.383c-8.365,10.667-17.24,19.224-26.627,25.665
		c-9.39,6.445-19.488,10.557-30.295,12.34c-11.955,1.972-21.687,0.196-29.193-5.336c-7.51-5.527-12.152-13.687-13.934-24.482
		c-1.179-7.148-0.395-13.864,2.359-20.149c2.75-6.285,7.15-11.293,13.196-15.026c0.461-0.362,0.836-0.279,1.118,0.248
		c0.284,0.529,0.332,1.023,0.148,1.486c-3.48,3.457-5.715,7.135-6.703,11.041c-0.99,3.908-0.997,8.803-0.026,14.689
		c0.763,4.625,2.184,8.893,4.266,12.795c2.08,3.905,4.717,7.213,7.907,9.926s6.97,4.648,11.341,5.797
		c4.369,1.15,9.226,1.286,14.566,0.404c11.063-1.824,21.188-6.373,30.373-13.648c9.186-7.271,17.967-16.424,25.128-28.297
		c7.276-12.064,16.809-36.304,23.203-51.301c6.58-15.429,13.898-30.369,20.558-47.016c-9.458-1.896-19.239-3.197-29.35-3.906
		c-10.109-0.708-19.68-0.317-28.708,1.172c-10.3,1.699-17.723,6.199-22.266,13.498c-4.545,7.303-6.563,16.453-6.052,27.455
		c-0.141,0.745-0.443,1.082-0.911,1.014c-0.47-0.064-0.825-0.438-1.066-1.119c-0.891-14.107,1.941-25.444,8.498-34.014
		c6.553-8.565,16.062-13.88,28.526-15.936c5.085-0.839,10.555-1.342,16.404-1.517c5.85-0.171,11.645-0.085,17.384,0.264
		c5.74,0.35,11.241,0.846,16.509,1.487c5.265,0.645,9.922,1.354,13.969,2.125c0.483-0.222,1.086-0.537,1.803-0.946
		c0.53,0.058,0.907,0.357,1.127,0.895c0.218,0.541,0.236,1.041,0.053,1.504c-1.598,1.417-2.843,3.167-3.737,5.259
		c-0.898,2.092-1.813,4.655-2.748,7.689c-4.025,15.208-6.647,30.792-7.865,46.758c-1.222,15.971-1.745,32.005-1.57,48.1
		c3.929-12.597,8.903-25.404,14.922-38.422c6.016-13.014,12.672-25.524,19.969-37.526c7.294-12.002,15.014-23.209,23.16-33.624
		C225.163,23.485,233.329,14.58,241.515,7.182z"/>
</g>
<g>
	<path d="M490.327,132.797c0-0.596,0.219-1.09,0.656-1.48s0.96-0.586,1.566-0.586c0.597,0,1.113,0.193,1.552,0.58
		c0.438,0.385,0.656,0.881,0.656,1.486c0,0.566-0.209,1.053-0.627,1.457s-0.955,0.607-1.611,0.607c-0.606,0-1.124-0.197-1.551-0.592
		C490.541,133.873,490.327,133.383,490.327,132.797z"/>
</g>
<g>
	<g>
		<path d="M453.73,173.031c0.855-0.098,1.558-0.078,2.106,0.063s0.84,0.361,0.874,0.664c0.043,0.369-0.017,0.799-0.176,1.293
			s-0.319,0.904-0.479,1.227c-0.07,0.078-0.166,0.098-0.288,0.061c-0.123-0.037-0.192-0.123-0.207-0.256
			c0.09-0.248,0.109-0.59,0.059-1.027c-0.054-0.469-0.244-0.838-0.57-1.105c-0.327-0.268-0.743-0.373-1.248-0.314
			c-0.662,0.076-1.177,0.314-1.545,0.713s-0.515,0.916-0.441,1.553c0.062,0.537,0.286,1.029,0.673,1.479
			c0.386,0.447,0.813,0.891,1.276,1.33c0.465,0.439,0.904,0.914,1.317,1.426c0.414,0.514,0.662,1.121,0.743,1.826
			c0.139,1.207-0.317,2.211-1.368,3.01c-1.052,0.803-2.49,1.307-4.318,1.518c-1.323,0.152-2.385,0.09-3.187-0.193
			c-0.801-0.281-1.226-0.641-1.275-1.076c-0.016-0.135,0.021-0.324,0.11-0.572c0.09-0.248,0.216-0.518,0.38-0.809
			c0.163-0.291,0.347-0.584,0.549-0.879c0.203-0.295,0.431-0.541,0.684-0.742c0.109-0.078,0.218-0.074,0.327,0.016
			c0.108,0.088,0.13,0.189,0.063,0.297c-0.21,0.23-0.36,0.459-0.453,0.689c-0.091,0.232-0.115,0.531-0.073,0.9
			c0.069,0.604,0.36,1.07,0.871,1.402c0.512,0.332,1.137,0.455,1.876,0.371c1.011-0.117,1.771-0.451,2.279-1.002
			c0.507-0.551,0.721-1.18,0.641-1.883c-0.074-0.637-0.309-1.213-0.702-1.729c-0.395-0.514-0.816-1.01-1.265-1.484
			c-0.449-0.475-0.87-0.961-1.263-1.459s-0.623-1.049-0.692-1.652c-0.101-0.871,0.243-1.65,1.031-2.336
			C450.826,173.664,452.058,173.225,453.73,173.031z"/>
	</g>
	<g>
		<path d="M456.542,148.427c1.542-0.218,2.383,0.488,2.523,2.114c0.047,0.519,0.009,1.13-0.102,1.839
			c-0.112,0.709-0.237,1.276-0.373,1.707c-0.2,0.105-0.344,0.051-0.429-0.165c0.197-0.889,0.042-1.604-0.473-2.148
			s-1.494-0.717-2.932-0.517c-1.509,0.211-2.839,0.79-3.987,1.737c-1.149,0.945-2.199,2.366-3.144,4.257
			c-0.947,1.891-1.814,4.314-2.601,7.267c-0.785,2.955-1.534,6.538-2.243,10.754c0.492,0.081,0.951,0.157,1.372,0.23
			c0.424,0.072,0.842,0.134,1.263,0.188c0.074,0.063,0.044,0.18-0.099,0.35c-0.143,0.168-0.345,0.347-0.604,0.532
			c-0.263,0.187-0.576,0.36-0.943,0.523c-0.371,0.166-0.724,0.251-1.07,0.263c-0.034,0.006-0.124-0.019-0.269-0.074
			c-0.065,0.422-0.129,0.815-0.185,1.177c-0.055,0.364-0.114,0.757-0.183,1.176c-0.69,4.474-0.281,6.606,1.226,6.396
			c1.341-0.187,3.611-2.854,4.663-5.097c0.095-0.127,0.196-0.16,0.304-0.101c0.108,0.063,0.156,0.185,0.135,0.376
			c-0.321,0.681-0.688,1.358-1.096,2.032c-0.411,0.676-1.928,2.751-2.397,3.32c-0.471,0.572-0.968,1.053-1.487,1.444
			c-0.521,0.39-1.021,0.62-1.502,0.686c-1.269,0.181-2.206-0.251-2.816-1.288c-0.609-1.035-0.731-2.834-0.363-5.393
			c0.132-0.916,0.262-1.807,0.396-2.664c0.132-0.862,0.302-1.718,0.506-2.572c-2.076-0.344-0.183-0.14-2.592-0.365
			c-2.381-0.223-4.798-0.443-7.248-0.323c-1.468,5.519-3.506,9.629-6.115,12.334c-2.611,2.703-5.578,4.288-8.903,4.754
			c-2.16,0.303-3.795,0.036-4.907-0.801c-1.113-0.835-1.731-1.976-1.855-3.416c-0.122-1.404,0.165-2.828,0.854-4.271
			c0.692-1.443,1.779-2.786,3.269-4.021c1.487-1.235,3.389-2.336,5.7-3.296c2.311-0.96,5.006-1.654,8.09-2.087l1.337-0.188
			c0.095-0.538,0.185-1.075,0.277-1.61c0.094-0.535,0.2-1.111,0.321-1.729c0.357-2.255,0.767-4.178,1.219-5.756
			c0.453-1.579,0.932-2.907,1.425-3.985c0.495-1.081,1.028-1.961,1.594-2.639c0.565-0.677,1.157-1.246,1.778-1.708
			c-0.921-0.207-2.011-0.365-3.269-0.468c-1.256-0.106-2.589-0.06-3.993,0.138c-1.61,0.227-2.934,0.654-3.973,1.286
			c-1.037,0.633-1.83,1.406-2.375,2.324c-0.545,0.919-0.847,1.952-0.902,3.1c-0.057,1.152,0.087,2.337,0.437,3.56
			c-0.02,0.191-0.076,0.313-0.176,0.363c-0.1,0.052-0.207,0.011-0.323-0.123c-0.443-1.51-0.572-2.979-0.382-4.408
			c0.188-1.431,0.678-2.727,1.462-3.882c0.783-1.156,1.877-2.133,3.282-2.929c1.408-0.794,3.119-1.335,5.142-1.619
			c1.442-0.201,2.844-0.22,4.21-0.058c1.369,0.165,2.604,0.412,3.705,0.745c0.157,0.204,0.166,0.409,0.03,0.613
			c-0.14,0.208-0.455,0.456-0.95,0.751c-0.662,0.392-1.208,0.88-1.645,1.467c-0.433,0.582-0.819,1.348-1.153,2.292
			c-0.333,0.944-0.643,2.093-0.927,3.442c-0.284,1.349-0.566,2.977-0.853,4.89c-0.156,0.996-0.324,1.972-0.503,2.932
			c-0.175,0.961-0.38,1.886-0.617,2.78c2.276-0.131,4.579,0.134,6.997,0.111c2.521-0.023,0.671-0.012,2.896,0.013
			c0.842-3.933,1.882-7.494,3.112-10.681c1.234-3.183,2.568-5.915,4.001-8.192c1.436-2.277,2.954-4.07,4.56-5.38
			C453.272,149.427,454.898,148.657,456.542,148.427z M416.1,191.645c1.509-0.212,2.825-0.63,3.948-1.257
			c1.128-0.626,2.115-1.528,2.968-2.716c0.851-1.185,1.596-2.711,2.231-4.58c0.638-1.862,1.237-4.145,1.803-6.845
			c-0.483,0.03-0.966,0.08-1.444,0.146c-0.481,0.066-0.959,0.136-1.44,0.203c-2.569,0.359-4.75,0.899-6.545,1.616
			c-1.792,0.721-3.229,1.558-4.31,2.513c-1.079,0.956-1.847,2.008-2.302,3.157c-0.456,1.147-0.629,2.353-0.523,3.608
			c0.139,1.588,0.696,2.736,1.678,3.44C413.142,191.638,414.455,191.874,416.1,191.645z"/>
	</g>
	<g>
		<path d="M479.916,175.266c0,1.9-2.957,3.201-8.869,3.9c-0.04,0.334-0.069,0.668-0.089,1c-0.02,0.334-0.029,0.684-0.029,1.051
			c0,0.867,0.235,1.533,0.705,2s1.214,0.699,2.232,0.699c0.743,0,1.507-0.184,2.29-0.551c0.783-0.365,1.41-0.832,1.88-1.398
			c0.156-0.066,0.273-0.043,0.353,0.074c0.078,0.117,0.098,0.242,0.059,0.375c-0.783,0.867-1.772,1.609-2.966,2.225
			c-1.195,0.617-2.478,0.926-3.848,0.926c-1.371,0-2.359-0.291-2.966-0.875c-0.607-0.584-0.911-1.408-0.911-2.475
			c0-1.033,0.255-2.109,0.764-3.227c0.509-1.115,1.165-2.141,1.968-3.074s1.723-1.691,2.761-2.275
			c1.037-0.582,2.085-0.875,3.143-0.875s1.909,0.26,2.555,0.775C479.593,174.059,479.916,174.633,479.916,175.266z M474.806,174.066
			c-0.901,0-1.674,0.357-2.32,1.074c-0.646,0.717-1.086,1.826-1.321,3.326c1.88-0.168,3.27-0.477,4.17-0.926
			s1.352-1.008,1.352-1.676c0-0.5-0.177-0.924-0.529-1.273C475.805,174.24,475.354,174.066,474.806,174.066z"/>
	</g>
	<g>
		<path d="M460.3,177.516c-0.118,0.068-0.216,0.043-0.294-0.074c-0.079-0.117-0.099-0.225-0.059-0.326c1.448-1,3.465-2.031,6.05-3.1
			c0.313,0,0.47,0.15,0.47,0.451c-0.509,0.766-1.009,1.6-1.498,2.5c-0.489,0.898-0.92,1.791-1.292,2.674
			c-0.372,0.885-0.676,1.734-0.91,2.551c-0.235,0.816-0.353,1.492-0.353,2.025c0,0.666,0.273,1,0.822,1
			c0.431,0,0.852-0.158,1.263-0.477c0.411-0.316,0.891-0.725,1.439-1.225c0.078-0.066,0.176-0.057,0.294,0.025
			c0.117,0.084,0.137,0.209,0.059,0.375c-0.862,0.867-1.714,1.566-2.556,2.1s-1.654,0.801-2.438,0.801
			c-1.371,0-2.056-0.551-2.056-1.65c0-0.6,0.107-1.309,0.323-2.125c0.215-0.816,0.508-1.65,0.881-2.5
			c0.372-0.85,0.783-1.684,1.233-2.5s0.91-1.525,1.381-2.125c-0.432,0.199-0.911,0.449-1.439,0.75S460.652,177.25,460.3,177.516z
			 M466.584,171.865c-0.117,0.102-0.245,0.102-0.382,0c-0.138-0.1-0.244-0.24-0.322-0.424c-0.079-0.184-0.118-0.383-0.118-0.6
			s0.059-0.408,0.177-0.576c0.431-0.467,1.066-1.057,1.909-1.775c0.841-0.715,1.712-1.324,2.613-1.824
			c0.078-0.033,0.177-0.008,0.294,0.074c0.117,0.084,0.156,0.16,0.117,0.227c-0.822,0.633-1.605,1.391-2.35,2.273
			C467.778,170.125,467.132,171,466.584,171.865z"/>
	</g>
	<g>
		<path d="M480.427,186.237c1.077-6.177,2.483-11.794,4.221-16.849c1.735-5.055,3.678-9.41,5.828-13.068
			c2.149-3.657,4.414-6.545,6.797-8.662c2.381-2.116,4.741-3.307,7.075-3.569c0.973-0.109,1.764,0.005,2.373,0.34
			c0.608,0.337,1.054,0.78,1.333,1.329c0.278,0.55,0.376,1.164,0.295,1.842c-0.082,0.679-0.308,1.303-0.675,1.871
			c-0.105,0.119-0.218,0.166-0.339,0.145s-0.189-0.102-0.205-0.241c0.115-0.717-0.172-1.354-0.864-1.909
			c-0.693-0.557-1.722-0.758-3.083-0.604c-2.102,0.237-4.039,0.966-5.813,2.187c-1.773,1.222-3.424,3.105-4.95,5.654
			c-1.525,2.549-2.926,5.859-4.201,9.928c-1.276,4.07-2.483,9.092-3.623,15.064c0.477-1.004,1.049-1.966,1.714-2.887
			c0.665-0.919,1.409-1.742,2.233-2.469s1.722-1.33,2.693-1.809c0.97-0.479,2-0.779,3.09-0.902c0.467-0.053,0.819,0.013,1.058,0.197
			c0.236,0.185,0.372,0.416,0.403,0.695c0.051,0.451-0.068,0.977-0.356,1.57c-0.672,1.379-1.185,2.775-1.538,4.188
			c-0.353,1.414-0.467,2.678-0.342,3.789c0.056,0.486,0.158,0.881,0.312,1.18c0.151,0.301,0.382,0.433,0.693,0.397
			c0.39-0.044,0.797-0.274,1.224-0.692c0.426-0.418,0.769-0.869,1.029-1.357c0.108-0.082,0.226-0.086,0.352-0.013
			c0.128,0.073,0.176,0.165,0.15,0.272c-0.42,0.823-1.055,1.581-1.902,2.275c-0.848,0.693-1.642,1.082-2.381,1.165
			c-0.661,0.075-1.225-0.028-1.689-0.312c-0.466-0.281-0.743-0.822-0.833-1.622c-0.071-0.626-0.078-1.303-0.021-2.032
			c0.056-0.727,0.151-1.449,0.287-2.17c0.135-0.72,0.311-1.436,0.527-2.146c0.216-0.711,0.468-1.363,0.755-1.96
			c0.147-0.438,0.211-0.745,0.19-0.919c-0.035-0.314-0.247-0.448-0.636-0.404c-0.739,0.083-1.51,0.426-2.308,1.025
			c-0.8,0.602-1.555,1.408-2.27,2.421c-0.714,1.014-1.377,2.207-1.99,3.579c-0.614,1.372-1.106,2.87-1.474,4.496
			c-0.052,0.253-0.336,0.532-0.853,0.836c-0.519,0.305-1.107,0.494-1.768,0.568C480.556,186.698,480.383,186.56,480.427,186.237z"/>
	</g>
</g>
</svg>
