<?xml version="1.0" encoding="utf-8"?>
<!-- Generator: Adobe Illustrator 23.0.3, SVG Export Plug-In . SVG Version: 6.00 Build 0)  -->
<svg version="1.1" xmlns="http://www.w3.org/2000/svg" xmlns:xlink="http://www.w3.org/1999/xlink" x="0px" y="0px"
	 viewBox="0 0 201.04 201.04" style="enable-background:new 0 0 201.04 201.04;" xml:space="preserve">
<style type="text/css">
	.st0{fill:#FFFFFF;}
</style>
<g id="圖層_1">
</g>
<g id="圖層_2">
	<g>
		<path class="st0" d="M100.52,201.04C45.09,201.04,0,155.94,0,100.52C0,45.09,45.09,0,100.52,0s100.52,45.09,100.52,100.52
			C201.04,155.94,155.94,201.04,100.52,201.04z M100.52,4.64c-52.87,0-95.88,43.01-95.88,95.88c0,52.87,43.01,95.88,95.88,95.88
			s95.88-43.01,95.88-95.88C196.39,47.65,153.38,4.64,100.52,4.64z"/>
		<path class="st0" d="M162.61,133.07c-0.79,0-2.72-0.17-3.95-0.35c-2.63-0.35-3.16-2.28-3.42-4.83
			c-0.44-3.68-0.44-10.62-0.44-19.04V93.41c0-13.69,0-16.14,0.17-18.95c0.17-3.07,0.88-4.56,3.25-5c1.05-0.17,1.58-0.26,2.19-0.26
			c0.35,0,0.7-0.18,0.7-0.53c0-0.53-0.44-0.7-1.41-0.7c-2.63,0-8.16,0.26-8.6,0.26c-0.44,0-5.96-0.26-9.91-0.26
			c-0.97,0-1.4,0.18-1.4,0.7c0,0.35,0.35,0.53,0.7,0.53c0.79,0,2.28,0.09,2.98,0.26c2.9,0.61,3.6,2.02,3.77,5
			c0.18,2.81,0.18,5.26,0.18,18.95v1.84c0,0.44-0.26,0.53-0.53,0.53h-37.2c-0.26,0-0.53-0.09-0.53-0.53v-1.84
			c0-13.69,0-16.14,0.17-18.95c0.18-3.07,0.88-4.56,3.25-5c1.05-0.17,1.58-0.26,2.19-0.26c0.35,0,0.7-0.18,0.7-0.53
			c0-0.53-0.44-0.7-1.4-0.7c-2.63,0-8.16,0.26-8.6,0.26c-0.44,0-5.96-0.26-9.91-0.26c-0.96,0-1.4,0.18-1.4,0.7
			c0,0.35,0.35,0.53,0.7,0.53c0.79,0,2.28,0.09,2.98,0.26c2.89,0.61,3.6,2.02,3.77,5c0.05,0.83,0.09,1.64,0.11,2.71l-21.57,46.07
			L53.34,68.06c-0.44-0.96-0.79-1.32-1.32-1.32c-0.53,0-0.88,0.61-0.96,1.58l-6.32,57.2c-0.35,3.33-0.61,6.75-3.51,7.28
			c-1.31,0.26-1.93,0.26-2.63,0.26c-0.44,0-0.88,0.18-0.88,0.44c0,0.61,0.61,0.79,1.49,0.79c2.37,0,6.58-0.26,7.37-0.26
			c0.7,0,4.91,0.26,8.16,0.26c1.05,0,1.58-0.18,1.58-0.79c0-0.26-0.35-0.44-0.7-0.44c-0.53,0-1.84-0.09-3.33-0.44
			c-1.32-0.26-2.28-1.4-2.28-2.72c0-1.49,0-3.07,0.09-4.47l3.51-40.71h0.35c0.97,2.37,10.79,23.42,11.58,25
			c0.44,0.88,7.98,16.06,10.26,20.35c1.67,3.16,2.11,4.03,2.72,4.03c0.79,0,1.05-0.79,2.9-4.65l20.4-43.3c0,1.99,0,4.37,0,7.24
			v15.44c0,8.42,0,15.35-0.44,19.04c-0.35,2.54-0.79,4.47-2.54,4.83c-0.79,0.18-1.84,0.35-2.63,0.35c-0.53,0-0.7,0.26-0.7,0.53
			c0,0.53,0.44,0.7,1.4,0.7c2.63,0,8.16-0.26,8.6-0.26c0.44,0,5.97,0.26,10.79,0.26c0.96,0,1.4-0.26,1.4-0.7
			c0-0.26-0.18-0.53-0.7-0.53c-0.79,0-2.72-0.17-3.95-0.35c-2.63-0.35-3.16-2.28-3.42-4.83c-0.44-3.68-0.44-10.62-0.44-19.04v-9.21
			c0-0.44,0.26-0.53,0.53-0.53h37.2c0.26,0,0.53,0.18,0.53,0.53v9.21c0,8.42,0,15.35-0.44,19.04c-0.35,2.54-0.79,4.47-2.55,4.83
			c-0.79,0.18-1.84,0.35-2.63,0.35c-0.53,0-0.7,0.26-0.7,0.53c0,0.53,0.44,0.7,1.4,0.7c2.63,0,8.16-0.26,8.6-0.26
			c0.44,0,5.97,0.26,10.79,0.26c0.96,0,1.4-0.26,1.4-0.7C163.31,133.33,163.14,133.07,162.61,133.07z"/>
	</g>
</g>
</svg>
