<?xml version="1.0" encoding="utf-8"?>
<!-- Generator: Adobe Illustrator 23.0.3, SVG Export Plug-In . SVG Version: 6.00 Build 0)  -->
<svg version="1.1" xmlns="http://www.w3.org/2000/svg" xmlns:xlink="http://www.w3.org/1999/xlink" x="0px" y="0px"
	 viewBox="0 0 520.87 127.08" style="enable-background:new 0 0 520.87 127.08;" xml:space="preserve">
<style type="text/css">
	.st0{fill:#231815;}
</style>
<g id="圖層_1">
</g>
<g id="圖層_2">
	<g>
		<g>
			<path class="st0" d="M63.54,127.08C28.5,127.08,0,98.58,0,63.54C0,28.5,28.5,0,63.54,0c35.04,0,63.54,28.5,63.54,63.54
				C127.08,98.58,98.58,127.08,63.54,127.08z M63.54,2.93c-33.42,0-60.61,27.19-60.61,60.61c0,33.42,27.19,60.61,60.61,60.61
				c33.42,0,60.61-27.19,60.61-60.61C124.15,30.12,96.96,2.93,63.54,2.93z"/>
			<path class="st0" d="M102.79,84.12c-0.5,0-1.72-0.11-2.5-0.22c-1.66-0.22-2-1.44-2.16-3.05c-0.28-2.33-0.28-6.71-0.28-12.04
				v-9.76c0-8.65,0-10.2,0.11-11.98c0.11-1.94,0.55-2.88,2.05-3.16c0.67-0.11,1-0.17,1.39-0.17c0.22,0,0.44-0.11,0.44-0.33
				c0-0.33-0.28-0.44-0.89-0.44c-1.66,0-5.16,0.17-5.43,0.17c-0.28,0-3.77-0.17-6.27-0.17c-0.61,0-0.89,0.11-0.89,0.45
				c0,0.22,0.22,0.33,0.44,0.33c0.5,0,1.44,0.06,1.88,0.17c1.83,0.39,2.28,1.28,2.39,3.16c0.11,1.77,0.11,3.33,0.11,11.98v1.16
				c0,0.28-0.17,0.33-0.33,0.33H69.35c-0.17,0-0.33-0.06-0.33-0.33v-1.16c0-8.65,0-10.2,0.11-11.98c0.11-1.94,0.56-2.88,2.05-3.16
				c0.67-0.11,1-0.17,1.39-0.17c0.22,0,0.44-0.11,0.44-0.33c0-0.33-0.28-0.44-0.89-0.44c-1.66,0-5.16,0.17-5.44,0.17
				c-0.28,0-3.77-0.17-6.27-0.17c-0.61,0-0.89,0.11-0.89,0.45c0,0.22,0.22,0.33,0.44,0.33c0.5,0,1.44,0.06,1.88,0.17
				c1.83,0.39,2.28,1.28,2.39,3.16c0.03,0.53,0.06,1.04,0.07,1.71L50.69,77.9L33.72,43.02c-0.28-0.61-0.5-0.83-0.83-0.83
				s-0.55,0.39-0.61,1l-3.99,36.16c-0.22,2.11-0.39,4.27-2.22,4.6c-0.83,0.17-1.22,0.17-1.66,0.17c-0.28,0-0.55,0.11-0.55,0.28
				c0,0.39,0.39,0.5,0.94,0.5c1.5,0,4.16-0.17,4.66-0.17c0.44,0,3.11,0.17,5.16,0.17c0.67,0,1-0.11,1-0.5
				c0-0.17-0.22-0.28-0.44-0.28c-0.33,0-1.16-0.06-2.11-0.28c-0.83-0.17-1.44-0.89-1.44-1.72c0-0.94,0-1.94,0.06-2.83l2.22-25.73
				h0.22c0.61,1.5,6.82,14.81,7.32,15.81c0.28,0.56,5.05,10.15,6.49,12.87c1.05,2,1.33,2.55,1.72,2.55c0.5,0,0.67-0.5,1.83-2.94
				l12.89-27.37c0,1.26,0,2.76,0,4.58v9.76c0,5.32,0,9.71-0.28,12.04c-0.22,1.61-0.5,2.83-1.61,3.05c-0.5,0.11-1.17,0.22-1.66,0.22
				c-0.33,0-0.44,0.17-0.44,0.33c0,0.33,0.28,0.44,0.89,0.44c1.66,0,5.16-0.17,5.43-0.17c0.28,0,3.77,0.17,6.82,0.17
				c0.61,0,0.89-0.17,0.89-0.44c0-0.17-0.11-0.33-0.44-0.33c-0.5,0-1.72-0.11-2.5-0.22c-1.66-0.22-2-1.44-2.16-3.05
				c-0.28-2.33-0.28-6.71-0.28-12.04v-5.82c0-0.28,0.17-0.33,0.33-0.33h23.51c0.17,0,0.33,0.11,0.33,0.33v5.82
				c0,5.32,0,9.71-0.28,12.04c-0.22,1.61-0.5,2.83-1.61,3.05c-0.5,0.11-1.16,0.22-1.66,0.22c-0.33,0-0.44,0.17-0.44,0.33
				c0,0.33,0.28,0.44,0.89,0.44c1.66,0,5.16-0.17,5.43-0.17c0.28,0,3.77,0.17,6.82,0.17c0.61,0,0.89-0.17,0.89-0.44
				C103.24,84.28,103.13,84.12,102.79,84.12z"/>
		</g>
		<g>
			<path class="st0" d="M150.88,69.09l6.03-42.15h0.69l17.14,34.58l16.97-34.58h0.67l6.07,42.15h-4.13l-4.16-30.14l-14.91,30.14
				h-1.08L159.1,38.71l-4.14,30.37H150.88z"/>
			<path class="st0" d="M207.46,25.07c0.91,0,1.69,0.32,2.34,0.98c0.65,0.65,0.97,1.43,0.97,2.35c0,0.9-0.32,1.67-0.97,2.32
				c-0.64,0.65-1.42,0.97-2.34,0.97c-0.89,0-1.66-0.33-2.31-0.97c-0.65-0.65-0.97-1.42-0.97-2.32c0-0.92,0.32-1.7,0.97-2.35
				C205.8,25.4,206.57,25.07,207.46,25.07z M205.47,37.91h4.01v31.17h-4.01V37.91z"/>
			<path class="st0" d="M217.82,37.91h4.01v5.59c1.6-2.14,3.38-3.74,5.33-4.8c1.95-1.06,4.07-1.59,6.36-1.59
				c2.33,0,4.4,0.59,6.21,1.78c1.8,1.19,3.14,2.78,4,4.79c0.86,2.01,1.29,5.13,1.29,9.37v16.04H241V54.21
				c0-3.59-0.15-5.99-0.45-7.19c-0.47-2.06-1.36-3.61-2.68-4.66c-1.32-1.04-3.04-1.56-5.16-1.56c-2.43,0-4.6,0.8-6.52,2.41
				c-1.92,1.6-3.19,3.59-3.8,5.96c-0.38,1.55-0.57,4.37-0.57,8.48v11.43h-4.01V37.91z"/>
			<path class="st0" d="M279.85,58.74l3.38,1.78c-1.11,2.18-2.39,3.94-3.84,5.27c-1.46,1.33-3.09,2.35-4.91,3.05
				c-1.82,0.7-3.87,1.05-6.17,1.05c-5.09,0-9.07-1.67-11.93-5c-2.87-3.34-4.3-7.1-4.3-11.3c0-3.96,1.21-7.48,3.64-10.57
				c3.08-3.94,7.2-5.9,12.36-5.9c5.31,0,9.56,2.02,12.73,6.05c2.25,2.85,3.4,6.4,3.44,10.66h-28.05c0.08,3.62,1.23,6.59,3.47,8.9
				c2.24,2.32,5,3.47,8.29,3.47c1.58,0,3.13-0.27,4.63-0.83c1.5-0.55,2.78-1.29,3.83-2.2C277.49,62.25,278.63,60.78,279.85,58.74z
				 M279.85,50.35c-0.53-2.14-1.31-3.85-2.34-5.13c-1.02-1.28-2.38-2.31-4.06-3.09c-1.68-0.78-3.45-1.17-5.31-1.17
				c-3.06,0-5.69,0.98-7.89,2.95c-1.61,1.43-2.82,3.58-3.64,6.45H279.85z"/>
			<path class="st0" d="M288.8,37.91h4.27l10.46,22.72l10.34-22.72h4.3L303.9,69.09h-0.75L288.8,37.91z"/>
			<path class="st0" d="M355.33,37.91v31.17h-3.95v-5.36c-1.68,2.04-3.57,3.58-5.66,4.61c-2.09,1.03-4.37,1.55-6.86,1.55
				c-4.41,0-8.18-1.6-11.3-4.8c-3.12-3.2-4.68-7.09-4.68-11.68c0-4.49,1.58-8.33,4.73-11.52c3.15-3.19,6.94-4.79,11.37-4.79
				c2.56,0,4.88,0.54,6.95,1.63c2.07,1.09,3.89,2.72,5.46,4.9v-5.73H355.33z M339.3,40.98c-2.24,0-4.3,0.55-6.18,1.65
				c-1.89,1.1-3.39,2.64-4.51,4.62c-1.12,1.98-1.67,4.08-1.67,6.29c0,2.2,0.56,4.29,1.69,6.3c1.13,2,2.64,3.56,4.54,4.68
				c1.9,1.12,3.93,1.67,6.11,1.67c2.19,0,4.27-0.55,6.24-1.66c1.97-1.11,3.48-2.61,4.54-4.49c1.06-1.89,1.59-4.02,1.59-6.38
				c0-3.61-1.19-6.62-3.56-9.04C345.69,42.19,342.77,40.98,339.3,40.98z"/>
			<path class="st0" d="M381.2,26.94h4.21v17.68h21.46V26.94h4.21v42.15h-4.21V48.74h-21.46v20.34h-4.21V26.94z"/>
			<path class="st0" d="M436.36,41.32l-2.58,2.66c-2.15-2.08-4.25-3.12-6.3-3.12c-1.3,0-2.42,0.43-3.34,1.29
				c-0.93,0.86-1.39,1.86-1.39,3.01c0,1.01,0.38,1.98,1.15,2.89c0.77,0.94,2.37,2.04,4.83,3.3c2.99,1.55,5.01,3.04,6.09,4.47
				c1.05,1.45,1.58,3.08,1.58,4.9c0,2.56-0.9,4.73-2.7,6.5c-1.8,1.78-4.04,2.67-6.74,2.67c-1.8,0-3.52-0.39-5.15-1.18
				c-1.64-0.78-2.99-1.86-4.06-3.24l2.52-2.87c2.05,2.31,4.22,3.47,6.52,3.47c1.61,0,2.98-0.52,4.11-1.55
				c1.13-1.03,1.69-2.24,1.69-3.64c0-1.15-0.37-2.17-1.12-3.07c-0.75-0.88-2.43-1.99-5.05-3.32c-2.81-1.45-4.73-2.89-5.75-4.3
				c-1.01-1.41-1.52-3.03-1.52-4.84c0-2.37,0.81-4.34,2.43-5.9c1.61-1.56,3.66-2.35,6.12-2.35
				C430.56,37.11,433.45,38.51,436.36,41.32z"/>
			<path class="st0" d="M444.86,25.07c0.91,0,1.69,0.32,2.34,0.98c0.65,0.65,0.97,1.43,0.97,2.35c0,0.9-0.32,1.67-0.97,2.32
				c-0.64,0.65-1.42,0.97-2.34,0.97c-0.89,0-1.66-0.33-2.31-0.97c-0.65-0.65-0.97-1.42-0.97-2.32c0-0.92,0.32-1.7,0.97-2.35
				C443.19,25.4,443.96,25.07,444.86,25.07z M442.86,37.91h4.01v31.17h-4.01V37.91z"/>
			<path class="st0" d="M481.46,58.74l3.38,1.78c-1.11,2.18-2.39,3.94-3.84,5.27c-1.46,1.33-3.09,2.35-4.91,3.05
				c-1.82,0.7-3.87,1.05-6.17,1.05c-5.08,0-9.06-1.67-11.93-5c-2.87-3.34-4.3-7.1-4.3-11.3c0-3.96,1.21-7.48,3.64-10.57
				c3.08-3.94,7.2-5.9,12.36-5.9c5.32,0,9.56,2.02,12.73,6.05c2.26,2.85,3.4,6.4,3.44,10.66h-28.05c0.08,3.62,1.24,6.59,3.47,8.9
				c2.24,2.32,5,3.47,8.29,3.47c1.59,0,3.13-0.27,4.63-0.83c1.51-0.55,2.78-1.29,3.83-2.2C479.1,62.25,480.24,60.78,481.46,58.74z
				 M481.46,50.35c-0.53-2.14-1.32-3.85-2.34-5.13c-1.02-1.28-2.38-2.31-4.06-3.09c-1.68-0.78-3.45-1.17-5.31-1.17
				c-3.06,0-5.69,0.98-7.89,2.95c-1.61,1.43-2.82,3.58-3.65,6.45H481.46z"/>
			<path class="st0" d="M493.35,25.88h4.01V43.5c1.62-2.14,3.41-3.74,5.36-4.8c1.95-1.06,4.06-1.59,6.33-1.59
				c2.33,0,4.4,0.59,6.21,1.78c1.8,1.19,3.14,2.77,3.99,4.77c0.86,2,1.29,5.13,1.29,9.38v16.04h-4.01V54.21
				c0-3.59-0.15-5.99-0.43-7.19c-0.5-2.06-1.4-3.61-2.71-4.66c-1.31-1.04-3.02-1.56-5.14-1.56c-2.43,0-4.6,0.8-6.52,2.41
				c-1.92,1.6-3.18,3.59-3.79,5.96c-0.38,1.53-0.57,4.35-0.57,8.48v11.43h-4.01V25.88z"/>
		</g>
		<g>
			<path class="st0" d="M165.95,102.94h-1.65v-9.48c0-0.75,0.05-1.66,0.14-2.75h-0.04c-0.16,0.64-0.3,1.09-0.42,1.37l-4.83,10.85
				h-0.81l-4.82-10.78c-0.14-0.31-0.28-0.8-0.42-1.45h-0.04c0.05,0.56,0.08,1.49,0.08,2.77v9.45h-1.6V88.81h2.19l4.33,9.85
				c0.33,0.75,0.55,1.32,0.65,1.69h0.06c0.28-0.78,0.51-1.35,0.68-1.73l4.42-9.81h2.07V102.94z"/>
			<path class="st0" d="M236.59,102.94h-1.83l-1.5-3.96h-5.99l-1.41,3.96h-1.84l5.42-14.12h1.72L236.59,102.94z M232.72,97.49
				l-2.22-6.02c-0.07-0.2-0.14-0.51-0.22-0.95h-0.04c-0.06,0.4-0.14,0.72-0.23,0.95l-2.2,6.02H232.72z"/>
			<path class="st0" d="M306.79,102.94h-2.3l-5.46-6.46c-0.2-0.24-0.33-0.41-0.38-0.49h-0.04v6.95h-1.66V88.81h1.66v6.64h0.04
				c0.09-0.14,0.22-0.31,0.38-0.48l5.28-6.16h2.06l-6.06,6.78L306.79,102.94z"/>
			<path class="st0" d="M377.17,102.94h-7.49V88.81h7.17v1.5h-5.51v4.7h5.1v1.49h-5.1v4.94h5.83V102.94z"/>
			<path class="st0" d="M450.24,97.23c0,3.97-1.79,5.95-5.37,5.95c-3.43,0-5.14-1.91-5.14-5.72v-8.64h1.66v8.53
				c0,2.9,1.22,4.34,3.66,4.34c2.36,0,3.54-1.4,3.54-4.2v-8.68h1.66V97.23z"/>
			<path class="st0" d="M513.88,97.6v5.34h-1.66V88.81h3.88c1.51,0,2.68,0.37,3.51,1.1c0.83,0.74,1.24,1.77,1.24,3.11
				c0,1.34-0.46,2.44-1.38,3.29c-0.92,0.85-2.17,1.28-3.74,1.28H513.88z M513.88,90.31v5.79h1.73c1.14,0,2.01-0.26,2.61-0.78
				c0.6-0.52,0.9-1.26,0.9-2.21c0-1.87-1.11-2.8-3.31-2.8H513.88z"/>
		</g>
	</g>
</g>
</svg>
